<svg width="80" height="81" viewBox="0 0 80 81" fill="none" xmlns="http://www.w3.org/2000/svg">
<g clip-path="url(#clip0_82_86)">
<rect width="80" height="80" transform="matrix(1 0 0 -1 0 80.7405)" fill="#0A2A55"/>
<path d="M23.4667 15.1405C23.2889 14.7849 22.9778 14.5627 22.5333 14.4738C22.0889 14.3849 21.6889 14.4294 21.3333 14.6072C20.9778 14.9627 20.7111 15.3183 20.5333 15.6738C20.3556 16.0294 20.4 16.4294 20.6667 16.8738C20.9333 17.3183 21.2889 17.5405 21.7333 17.5405C22.1778 17.5405 22.5778 17.4516 22.9333 17.2738C23.2889 17.096 23.5111 16.7849 23.6 16.3405C23.6889 15.896 23.6444 15.496 23.4667 15.1405ZM79.2 27.4072L40.8 3.67382C40.2667 3.31826 39.7333 3.31826 39.2 3.67382L26.4 11.6738C25.8667 11.8516 25.5556 12.1627 25.4667 12.6072C25.3778 13.0516 25.4667 13.4516 25.7333 13.8072C26 14.1627 26.3556 14.3849 26.8 14.4738C27.2444 14.5627 27.6444 14.5183 28 14.3405L40 6.87382L75.4667 28.7405L40 50.6072L20.8 38.8738L37.0667 29.2738C37.9556 29.9849 38.9778 30.3405 40.1333 30.3405C41.2889 30.3405 42.3556 29.8516 43.3333 28.8738C44.3111 27.896 44.8 26.7849 44.8 25.5405C44.8 24.296 44.3111 23.2294 43.3333 22.3405C42.3556 21.4516 41.2444 21.0072 40 21.0072C38.7556 21.0072 37.6444 21.4516 36.6667 22.3405C35.6889 23.2294 35.2 24.296 35.2 25.5405L35.4667 26.6072L17.8667 37.0072L4.53333 28.7405L16.8 21.0072C17.1556 20.8294 17.3778 20.5183 17.4667 20.0738C17.5556 19.6294 17.5111 19.2294 17.3333 18.8738C17.1556 18.5183 16.8444 18.296 16.4 18.2072C15.9556 18.1183 15.5556 18.1627 15.2 18.3405L0.8 27.4072C0.266667 27.7627 0 28.2072 0 28.7405C0 29.2738 0.266667 29.7183 0.8 30.0738L14.9333 38.6072L13.0667 39.6738C11.6444 40.5627 10.5333 41.7183 9.73333 43.1405C8.93333 44.5627 8.53333 46.0738 8.53333 47.6738V50.3405C7.64444 50.696 6.88889 51.2294 6.26667 51.9405C5.64444 52.6516 5.33333 53.5405 5.33333 54.6072V57.2738C4.08889 58.5183 3.46667 60.1183 3.46667 62.0738V76.4738C3.46667 77.0072 3.6 77.4072 3.86667 77.6738C4.13333 77.9405 4.53333 78.0738 5.06667 78.0738H14.9333C15.4667 78.0738 15.8667 77.9405 16.1333 77.6738C16.4 77.4072 16.5333 77.0072 16.5333 76.4738V62.0738C16.5333 60.1183 15.9111 58.5183 14.6667 57.2738V54.6072C14.6667 53.5405 14.3556 52.6516 13.7333 51.9405C13.1111 51.2294 12.3556 50.696 11.4667 50.3405V47.6738C11.4667 46.6072 11.7333 45.6294 12.2667 44.7405C12.8 43.8516 13.6 43.1405 14.6667 42.6072L16.5333 41.2738V56.4738C16.5333 56.8294 16.7111 57.1849 17.0667 57.5405C17.4222 57.896 17.7778 58.0738 18.1333 58.0738C22.0444 58.0738 25.7778 58.8294 29.3333 60.3405C32.8889 61.8516 36.0889 64.0294 38.9333 66.8738C39.2889 67.0516 39.6444 67.1405 40 67.1405C40.3556 67.1405 40.7111 67.0516 41.0667 66.8738C43.9111 64.0294 47.1111 61.8516 50.6667 60.3405C54.2222 58.8294 57.9556 58.0738 61.8667 58.0738C62.2222 58.0738 62.5778 57.896 62.9333 57.5405C63.2889 57.1849 63.4667 56.8294 63.4667 56.4738V53.8072C63.4667 53.2738 63.2889 52.8738 62.9333 52.6072C62.5778 52.3405 62.2222 52.2072 61.8667 52.2072C61.5111 52.2072 61.1556 52.3405 60.8 52.6072C60.4444 52.8738 60.2667 53.2738 60.2667 53.8072V54.8738C53.3333 55.2294 47.1111 57.6294 41.6 62.0738V58.8738C41.6 58.5183 41.4222 58.1627 41.0667 57.8072C40.7111 57.4516 40.3556 57.2738 40 57.2738C39.6444 57.2738 39.2889 57.4516 38.9333 57.8072C38.5778 58.1627 38.4 58.5183 38.4 58.8738V62.0738C32.8889 57.6294 26.6667 55.2294 19.7333 54.8738V41.8072L39.2 53.8072C39.3778 53.9849 39.6444 54.0738 40 54.0738C40.3556 54.0738 40.6222 53.9849 40.8 53.8072L60.2667 41.8072V43.4072C60.2667 43.9405 60.4444 44.3405 60.8 44.6072C61.1556 44.8738 61.5111 45.0072 61.8667 45.0072C62.2222 45.0072 62.5778 44.8738 62.9333 44.6072C63.2889 44.3405 63.4667 43.9405 63.4667 43.4072V39.9405L79.2 30.0738C79.7333 29.7183 80 29.2738 80 28.7405C80 28.2072 79.7333 27.7627 79.2 27.4072ZM40 23.9405C40.3556 23.9405 40.7111 24.1183 41.0667 24.4738C41.4222 24.8294 41.6 25.2294 41.6 25.6738C41.6 26.1183 41.4222 26.4738 41.0667 26.7405C40.7111 27.0072 40.3556 27.1405 40 27.1405C39.6444 27.1405 39.2889 27.0072 38.9333 26.7405C38.5778 26.4738 38.4 26.1183 38.4 25.6738C38.4 25.2294 38.5778 24.8294 38.9333 24.4738C39.2889 24.1183 39.6444 23.9405 40 23.9405ZM8.53333 54.6072C8.53333 54.2516 8.66667 53.896 8.93333 53.5405C9.2 53.1849 9.55556 53.0072 10 53.0072C10.4444 53.0072 10.8 53.1849 11.0667 53.5405C11.3333 53.896 11.4667 54.2516 11.4667 54.6072V55.4072H8.53333V54.6072ZM13.3333 62.0738V74.8738H6.66667V62.0738C6.66667 61.0072 6.97778 60.1627 7.6 59.5405C8.22222 58.9183 9.02222 58.6072 10 58.6072C10.9778 58.6072 11.7778 58.9183 12.4 59.5405C13.0222 60.1627 13.3333 61.0072 13.3333 62.0738ZM62.9333 47.1405C62.5778 46.7849 62.2222 46.6072 61.8667 46.6072C61.5111 46.6072 61.1556 46.7849 60.8 47.1405C60.4444 47.496 60.2667 47.896 60.2667 48.3405C60.2667 48.7849 60.4444 49.1405 60.8 49.4072C61.1556 49.6738 61.5111 49.8072 61.8667 49.8072C62.2222 49.8072 62.5778 49.6738 62.9333 49.4072C63.2889 49.1405 63.4667 48.7849 63.4667 48.3405C63.4667 47.896 63.2889 47.496 62.9333 47.1405Z" fill="white"/>
</g>
<defs>
<clipPath id="clip0_82_86">
<rect width="80" height="80" fill="white" transform="matrix(1 0 0 -1 0 80.7405)"/>
</clipPath>
</defs>
</svg>
