<svg width="80" height="81" viewBox="0 0 80 81" fill="none" xmlns="http://www.w3.org/2000/svg">
<g clip-path="url(#clip0_82_91)">
<rect width="80" height="80" transform="matrix(1 0 0 -1 0 80.7405)" fill="#0A2A55"/>
<path d="M38.9333 29.5405C39.4667 29.5405 39.8667 29.4071 40.1333 29.1405C40.4 28.8738 40.5333 28.5183 40.5333 28.0738C40.5333 27.6294 40.4 27.2294 40.1333 26.8738C39.8667 26.5183 39.5111 26.3405 39.0667 26.3405C38.6222 26.3405 38.2222 26.5183 37.8667 26.8738C37.5111 27.2294 37.3333 27.6294 37.3333 28.0738C37.3333 28.5183 37.5111 28.8738 37.8667 29.1405C38.2222 29.4071 38.5778 29.5405 38.9333 29.5405ZM29.3333 29.5405C29.6889 29.5405 30.0444 29.4071 30.4 29.1405C30.7556 28.8738 30.9333 28.5183 30.9333 28.0738C30.9333 27.6294 30.7556 27.2294 30.4 26.8738C30.0444 26.5183 29.6889 26.3405 29.3333 26.3405C28.9778 26.3405 28.6222 26.5183 28.2667 26.8738C27.9111 27.2294 27.7333 27.6294 27.7333 28.0738C27.7333 28.5183 27.9111 28.8738 28.2667 29.1405C28.6222 29.4071 28.9778 29.5405 29.3333 29.5405ZM71.4667 33.0071C71.1111 33.0071 70.8 33.1405 70.5333 33.4071C70.2667 33.6738 70.1333 34.0294 70.1333 34.4738C70.1333 34.9183 70.2667 35.3183 70.5333 35.6738C70.8 36.0294 71.1111 36.2071 71.4667 36.2071C73.0667 36.2071 74.3556 36.696 75.3333 37.6738C76.3111 38.6516 76.8 39.8516 76.8 41.2738V64.7405C76.8 66.3405 76.3111 67.6294 75.3333 68.6071C74.3556 69.5849 73.0667 70.0738 71.4667 70.0738H34.9333C33.5111 70.0738 32.2667 69.5849 31.2 68.6071C30.1333 67.6294 29.6 66.3405 29.6 64.7405V41.2738C29.6 39.8516 30.1333 38.6516 31.2 37.6738C32.2667 36.696 33.5111 36.2071 34.9333 36.2071H57.6C57.9556 36.2071 58.2667 36.0294 58.5333 35.6738C58.8 35.3183 58.9333 34.9183 58.9333 34.4738C58.9333 34.0294 58.8 33.6738 58.5333 33.4071C58.2667 33.1405 57.9556 33.0071 57.6 33.0071H47.7333C47.9111 31.9405 48 30.8738 48 29.8071V23.1405H50.1333C50.4889 23.1405 50.8444 23.0071 51.2 22.7405C51.5556 22.4738 51.7333 22.1627 51.7333 21.8071V16.2071C51.7333 13.3627 51.0222 10.7849 49.6 8.47381C48.1778 6.1627 46.2667 4.29603 43.8667 2.87381C41.4667 1.45158 38.8444 0.740471 36 0.740471C33.8667 0.740471 31.9111 1.31825 30.1333 2.47381C28.3556 3.62936 27.0222 5.18492 26.1333 7.14047C23.4667 7.31825 21.2889 8.34048 19.6 10.2071C17.9111 12.0738 17.0667 14.2516 17.0667 16.7405V21.2738C17.0667 21.9849 17.3778 22.4294 18 22.6071C18.6222 22.7849 19.2889 22.9627 20 23.1405V29.8071C20 32.1183 20.5778 34.3405 21.7333 36.4738C22.8889 38.6071 24.4444 40.296 26.4 41.5405V42.6071H24.5333C20.0889 42.6071 16 43.7183 12.2667 45.9405C8.53333 48.1627 5.55556 51.1405 3.33333 54.8738C1.11111 58.6071 0 62.7849 0 67.4071V71.4071C0 73.896 0.933333 76.0738 2.8 77.9405C4.66667 79.8071 6.84444 80.7405 9.33333 80.7405H67.2C67.7333 80.7405 68.1333 80.6071 68.4 80.3405C68.6667 80.0738 68.8 79.7183 68.8 79.2738C68.8 78.8294 68.6667 78.4294 68.4 78.0738C68.1333 77.7183 67.7333 77.5405 67.2 77.5405H65.8667C66.9333 76.296 67.6444 74.8738 68 73.2738H71.4667C73.9556 73.2738 76 72.4294 77.6 70.7405C79.2 69.0516 80 67.0516 80 64.7405V41.2738C80 38.9627 79.2 37.0071 77.6 35.4071C76 33.8071 73.9556 33.0071 71.4667 33.0071ZM47.2 73.2738V77.5405H38.1333V76.7405C38.1333 75.496 37.7778 74.3405 37.0667 73.2738H47.2ZM36 3.94048C39.5556 3.94048 42.5333 5.14047 44.9333 7.54047C47.3333 9.94048 48.5333 12.8294 48.5333 16.2071V20.2071H36C33.8667 20.2071 32 19.4071 30.4 17.8071C28.8 16.2071 28 14.296 28 12.0738C28 9.85159 28.8 7.94048 30.4 6.34048C32 4.74047 33.8667 3.94048 36 3.94048ZM20 16.7405C20 15.3183 20.4889 13.9849 21.4667 12.7405C22.4444 11.496 23.6444 10.696 25.0667 10.3405L24.8 11.9405C24.8 14.2516 25.4222 16.3849 26.6667 18.3405C24.7111 19.9405 22.4889 20.4738 20 19.9405V16.7405ZM23.2 29.8071V23.1405C25.3333 22.7849 27.2 21.896 28.8 20.4738C30.9333 22.2516 33.3333 23.1405 36 23.1405H45.0667V29.8071C45.0667 30.8738 44.8889 31.9405 44.5333 33.0071H34.9333C33.1556 33.0071 31.5556 33.496 30.1333 34.4738C28.7111 35.4516 27.7333 36.6516 27.2 38.0738C25.9556 37.1849 24.9778 35.9849 24.2667 34.4738C23.5556 32.9627 23.2 31.4071 23.2 29.8071ZM9.33333 77.5405C7.55556 77.5405 6.08889 76.9627 4.93333 75.8071C3.77778 74.6516 3.2 73.1849 3.2 71.4071V67.4071C3.2 63.496 4.13333 59.896 6 56.6071C7.86667 53.3183 10.4889 50.696 13.8667 48.7405C17.2444 46.7849 20.8 45.8071 24.5333 45.8071H26.4V64.7405C26.4 65.8071 26.5778 66.7849 26.9333 67.6738H15.7333C15.3778 67.6738 15.0222 67.8071 14.6667 68.0738C14.3111 68.3405 14.1333 68.696 14.1333 69.1405C14.1333 69.5849 14.3111 69.9405 14.6667 70.2071C15.0222 70.4738 15.3778 70.6071 15.7333 70.6071H26.4V77.5405H9.33333ZM29.6 77.5405V73.2738H31.4667C32.3556 73.2738 33.1556 73.6294 33.8667 74.3405C34.5778 75.0516 34.9333 75.8516 34.9333 76.7405V77.5405H29.6ZM50.4 73.2738H56.2667V77.5405H50.4V73.2738ZM59.4667 77.5405V73.2738H64.8C64.4445 74.5183 63.7778 75.5405 62.8 76.3405C61.8222 77.1405 60.7111 77.5405 59.4667 77.5405ZM53.3333 47.4071C51.7333 47.4071 50.3556 47.9405 49.2 49.0071C48.0444 50.0738 47.4667 51.4071 47.4667 53.0071C47.4667 54.6071 48.0444 55.9849 49.2 57.1405C50.3556 58.296 51.7333 58.8738 53.3333 58.8738C54.9333 58.8738 56.2667 58.296 57.3333 57.1405C58.4 55.9849 58.9333 54.6071 58.9333 53.0071C58.9333 51.4071 58.4 50.0738 57.3333 49.0071C56.2667 47.9405 54.9333 47.4071 53.3333 47.4071ZM53.3333 55.6738C52.4444 55.6738 51.7778 55.4516 51.3333 55.0071C50.8889 54.5627 50.6667 53.9405 50.6667 53.1405C50.6667 52.3405 50.8889 51.6738 51.3333 51.1405C51.7778 50.6071 52.4 50.3405 53.2 50.3405C54 50.3405 54.6667 50.6071 55.2 51.1405C55.7333 51.6738 56 52.3405 56 53.1405C56 53.9405 55.7333 54.5627 55.2 55.0071C54.6667 55.4516 54.0444 55.6738 53.3333 55.6738ZM64.5333 36.2071C64.8889 36.2071 65.2444 36.0294 65.6 35.6738C65.9556 35.3183 66.1333 34.9183 66.1333 34.4738C66.1333 34.0294 65.9556 33.6738 65.6 33.4071C65.2444 33.1405 64.8889 33.0071 64.5333 33.0071C64.1778 33.0071 63.8222 33.1405 63.4667 33.4071C63.1111 33.6738 62.9333 34.0294 62.9333 34.4738C62.9333 34.9183 63.1111 35.3183 63.4667 35.6738C63.8222 36.0294 64.1778 36.2071 64.5333 36.2071Z" fill="white"/>
</g>
<defs>
<clipPath id="clip0_82_91">
<rect width="80" height="80" fill="white" transform="matrix(1 0 0 -1 0 80.7405)"/>
</clipPath>
</defs>
</svg>
