<svg width="80" height="81" viewBox="0 0 80 81" fill="none" xmlns="http://www.w3.org/2000/svg">
<g clip-path="url(#clip0_82_81)">
<rect width="80" height="80" transform="matrix(1 0 0 -1 0 80.7405)" fill="#0A2A55"/>
<path d="M78.4 62.0738H76.8V22.8738C76.8 20.5627 76.0444 18.6516 74.5333 17.1405C73.0222 15.6294 71.2 14.8738 69.0667 14.8738H64.2667V11.1405C64.2667 9.3627 63.6889 7.89603 62.5333 6.74048C61.3778 5.58492 60 5.00715 58.4 5.00715H38.6667C36.8889 5.00715 35.4222 5.58492 34.2667 6.74048C33.1111 7.89603 32.5333 9.3627 32.5333 11.1405V14.8738H10.9333C8.8 14.8738 6.97778 15.6294 5.46667 17.1405C3.95556 18.6516 3.2 20.5627 3.2 22.8738V62.0738H1.6C1.06667 62.0738 0.666667 62.2516 0.4 62.6071C0.133333 62.9627 0 63.3183 0 63.6738C0 67.2294 1.24444 70.2516 3.73333 72.7405C6.22222 75.2294 9.24444 76.4738 12.8 76.4738H33.0667C33.4222 76.4738 33.7333 76.3405 34 76.0738C34.2667 75.8071 34.4 75.4516 34.4 75.0071C34.4 74.5627 34.2667 74.1627 34 73.8071C33.7333 73.4516 33.4222 73.2738 33.0667 73.2738H12.8C10.4889 73.2738 8.4 72.5183 6.53333 71.0071C4.66667 69.496 3.55556 67.5849 3.2 65.2738H76.8C76.4445 67.5849 75.3333 69.496 73.4667 71.0071C71.6 72.5183 69.5111 73.2738 67.2 73.2738H46.9333C46.5778 73.2738 46.2667 73.4516 46 73.8071C45.7333 74.1627 45.6 74.5627 45.6 75.0071C45.6 75.4516 45.7333 75.8071 46 76.0738C46.2667 76.3405 46.5778 76.4738 46.9333 76.4738H67.2C70.7556 76.4738 73.7778 75.2294 76.2667 72.7405C78.7556 70.2516 80 67.2294 80 63.6738C80 63.3183 79.8667 62.9627 79.6 62.6071C79.3333 62.2516 78.9333 62.0738 78.4 62.0738ZM35.7333 11.1405C35.7333 10.2516 36 9.54048 36.5333 9.00715C37.0667 8.47382 37.7778 8.20715 38.6667 8.20715H58.4C59.1111 8.20715 59.7778 8.47382 60.4 9.00715C61.0222 9.54048 61.3333 10.2516 61.3333 11.1405V25.5405C61.3333 26.2516 61.0222 26.9183 60.4 27.5405C59.7778 28.1627 59.1111 28.4738 58.4 28.4738H43.7333C43.2 28.4738 42.8444 28.5627 42.6667 28.7405L40 31.1405V29.8071C40 29.4516 39.8667 29.1405 39.6 28.8738C39.3333 28.6071 38.8889 28.4738 38.2667 28.4738C37.6444 28.4738 37.0667 28.1627 36.5333 27.5405C36 26.9183 35.7333 26.2516 35.7333 25.5405V11.1405ZM6.13333 22.8738C6.13333 21.4516 6.62222 20.296 7.6 19.4071C8.57778 18.5183 9.68889 18.0738 10.9333 18.0738H32.5333V21.2738H10.9333C10.5778 21.2738 10.2222 21.4071 9.86667 21.6738C9.51111 21.9405 9.33333 22.3405 9.33333 22.8738V62.0738H6.13333V22.8738ZM18.9333 62.0738V61.2738C18.9333 58.9627 19.7333 56.9627 21.3333 55.2738C22.9333 53.5849 24.8889 52.7405 27.2 52.7405H28V55.6738C28 56.2071 28.1333 56.6071 28.4 56.8738C28.6667 57.1405 29.0222 57.2738 29.4667 57.2738C29.9111 57.2738 30.2667 57.1405 30.5333 56.8738C30.8 56.6071 30.9333 56.2071 30.9333 55.6738V52.7405H31.7333C34.0444 52.7405 36 53.5849 37.6 55.2738C39.2 56.9627 40 58.9627 40 61.2738V62.0738H18.9333ZM33.6 45.5405C33.6 46.6071 33.2 47.5405 32.4 48.3405C31.6 49.1405 30.6222 49.5405 29.4667 49.5405C28.3111 49.5405 27.3333 49.1405 26.5333 48.3405C25.7333 47.5405 25.3333 46.6071 25.3333 45.5405V44.4738C25.3333 43.4071 25.7333 42.4738 26.5333 41.6738C27.3333 40.8738 28.3111 40.4738 29.4667 40.4738C30.6222 40.4738 31.6 40.8738 32.4 41.6738C33.2 42.4738 33.6 43.4071 33.6 44.4738V45.5405ZM43.2 62.0738V61.2738C43.2 58.6071 42.4444 56.2516 40.9333 54.2071C39.4222 52.1627 37.4222 50.7849 34.9333 50.0738C36 48.8294 36.5333 47.3183 36.5333 45.5405V44.4738C36.5333 42.5183 35.8667 40.8294 34.5333 39.4071C33.2 37.9849 31.5111 37.2738 29.4667 37.2738C27.4222 37.2738 25.7333 37.9849 24.4 39.4071C23.0667 40.8294 22.4 42.5183 22.4 44.4738V45.5405C22.4 47.3183 22.9333 48.8294 24 50.0738C21.5111 50.7849 19.5111 52.1627 18 54.2071C16.4889 56.2516 15.7333 58.6071 15.7333 61.2738V62.0738H12.5333V24.2071H32.5333V25.5405C32.5333 26.7849 32.9333 27.9849 33.7333 29.1405C34.5333 30.296 35.6444 31.0516 37.0667 31.4071V35.1405C37.0667 35.6738 37.3333 36.1183 37.8667 36.4738H38.6667C39.0222 36.4738 39.3778 36.3849 39.7333 36.2071L44.2667 31.4071H58.4C60 31.4071 61.3778 30.8294 62.5333 29.6738C63.6889 28.5183 64.2667 27.1405 64.2667 25.5405V24.2071H67.4667V62.0738H43.2ZM70.6667 62.0738V22.8738C70.6667 22.3405 70.4889 21.9405 70.1333 21.6738C69.7778 21.4071 69.4222 21.2738 69.0667 21.2738H64.2667V18.0738H69.0667C70.3111 18.0738 71.4222 18.5183 72.4 19.4071C73.3778 20.296 73.8667 21.4516 73.8667 22.8738V62.0738H70.6667ZM43.4667 67.6738H36.5333C36.1778 67.6738 35.8222 67.8516 35.4667 68.2071C35.1111 68.5627 34.9333 68.9627 34.9333 69.4071C34.9333 69.8516 35.1111 70.2071 35.4667 70.4738C35.8222 70.7405 36.1778 70.8738 36.5333 70.8738H43.4667C44 70.8738 44.4 70.7405 44.6667 70.4738C44.9333 70.2071 45.0667 69.8516 45.0667 69.4071C45.0667 68.9627 44.9333 68.5627 44.6667 68.2071C44.4 67.8516 44 67.6738 43.4667 67.6738ZM44.8 24.2071C45.3333 24.5627 45.8667 24.7405 46.4 24.7405C46.9333 24.7405 47.3778 24.5627 47.7333 24.2071L53.6 20.7405C54.6667 20.2071 55.2 19.3627 55.2 18.2071C55.2 17.0516 54.6667 16.2071 53.6 15.6738L47.7333 12.2071C46.8444 11.6738 45.8667 11.6738 44.8 12.2071C43.7333 12.7405 43.2 13.6294 43.2 14.8738V21.5405C43.2 22.7849 43.7333 23.6738 44.8 24.2071ZM46.4 15.1405L52 18.3405L46.4 21.2738V15.1405ZM40 73.2738C39.6444 73.2738 39.2889 73.4516 38.9333 73.8071C38.5778 74.1627 38.4 74.5627 38.4 75.0071C38.4 75.4516 38.5778 75.8071 38.9333 76.0738C39.2889 76.3405 39.6444 76.4738 40 76.4738C40.3556 76.4738 40.7111 76.3405 41.0667 76.0738C41.4222 75.8071 41.6 75.4516 41.6 75.0071C41.6 74.5627 41.4222 74.1627 41.0667 73.8071C40.7111 73.4516 40.3556 73.2738 40 73.2738Z" fill="white"/>
</g>
<defs>
<clipPath id="clip0_82_81">
<rect width="80" height="80" fill="white" transform="matrix(1 0 0 -1 0 80.7405)"/>
</clipPath>
</defs>
</svg>
