<svg width="212" height="243" viewBox="0 0 212 243" fill="none" xmlns="http://www.w3.org/2000/svg">
<g filter="url(#filter0_d_80_318)">
<path d="M24.1951 204.718L6 0.835205H206L187.781 204.686L105.878 227.363L24.1951 204.718Z" fill="#1572B6"/>
<path d="M106 210.034L172.186 191.709L187.756 17.5095H106V210.034Z" fill="#33A9DC"/>
<path d="M106 91.3739H139.134L141.418 65.7682H106V40.7612H106.089H168.784L168.184 47.4681L162.035 116.381H106V91.3739Z" fill="#DBE1E9"/>
<path d="M106.154 156.313L106.041 156.345L78.1565 148.821L76.3743 128.879H62.8212H51.2366L54.7444 168.141L106.032 182.364L106.154 182.331V156.313Z" fill="#EBEBEB"/>
<path d="M137.003 115.32L133.989 148.805L106.065 156.329V182.347L157.393 168.141L157.774 163.918L162.124 115.32H137.003Z" fill="#DBE1E9"/>
<path d="M106.089 40.7612V56.2945V65.7035V65.7682H45.6873H45.6063L45.104 60.1455L43.9618 47.4681L43.3623 40.7612H106.089Z" fill="#EBEBEB"/>
<path d="M106 91.3744V106.908V116.317V116.381H78.5454H78.4644L77.9621 110.759L76.828 98.0812L76.2285 91.3744H106Z" fill="#EBEBEB"/>
</g>
<defs>
<filter id="filter0_d_80_318" x="0" y="0.835205" width="212" height="241.527" filterUnits="userSpaceOnUse" color-interpolation-filters="sRGB">
<feFlood flood-opacity="0" result="BackgroundImageFix"/>
<feColorMatrix in="SourceAlpha" type="matrix" values="0 0 0 0 0 0 0 0 0 0 0 0 0 0 0 0 0 0 127 0" result="hardAlpha"/>
<feOffset dy="9"/>
<feGaussianBlur stdDeviation="3"/>
<feComposite in2="hardAlpha" operator="out"/>
<feColorMatrix type="matrix" values="0 0 0 0 0 0 0 0 0 0 0 0 0 0 0 0 0 0 0.25 0"/>
<feBlend mode="normal" in2="BackgroundImageFix" result="effect1_dropShadow_80_318"/>
<feBlend mode="normal" in="SourceGraphic" in2="effect1_dropShadow_80_318" result="shape"/>
</filter>
</defs>
</svg>
