<svg width="23" height="20" viewBox="0 0 23 20" fill="none" xmlns="http://www.w3.org/2000/svg">
<path d="M1.57739 4.16998H21.8899C22.3214 4.16998 22.6711 3.82023 22.6711 3.38873V1.43561C22.6711 1.00411 22.3214 0.654358 21.8899 0.654358H1.57739C1.1459 0.654358 0.796143 1.00411 0.796143 1.43561V3.38873C0.796143 3.82023 1.1459 4.16998 1.57739 4.16998ZM1.57739 11.9825H21.8899C22.3214 11.9825 22.6711 11.6327 22.6711 11.2012V9.24811C22.6711 8.81661 22.3214 8.46686 21.8899 8.46686H1.57739C1.1459 8.46686 0.796143 8.81661 0.796143 9.24811V11.2012C0.796143 11.6327 1.1459 11.9825 1.57739 11.9825ZM1.57739 19.795H21.8899C22.3214 19.795 22.6711 19.4452 22.6711 19.0137V17.0606C22.6711 16.6291 22.3214 16.2794 21.8899 16.2794H1.57739C1.1459 16.2794 0.796143 16.6291 0.796143 17.0606V19.0137C0.796143 19.4452 1.1459 19.795 1.57739 19.795Z" fill="black"/>
</svg>
