<svg width="212" height="242" viewBox="0 0 212 242" fill="none" xmlns="http://www.w3.org/2000/svg">
<g filter="url(#filter0_d_80_327)">
<path d="M24.2017 204.139L6 0H206L187.774 204.107L105.878 226.812L24.2017 204.139Z" fill="#E44F26"/>
<path d="M106 209.462L172.18 191.114L187.749 16.6954H106V209.462Z" fill="#F1662A"/>
<path d="M106 92.4008H72.8688L70.5845 66.7628H106V41.7244H105.911H43.2212L43.8206 48.4477L49.9689 117.439H106V92.4008Z" fill="#DBE1E9"/>
<path d="M106 157.424L105.886 157.456L78.0047 149.931L76.2226 129.963H62.6706H51.0869L54.5944 169.267L105.886 183.507L106 183.475V157.424Z" fill="#DBE1E9"/>
<path d="M105.911 92.4014V117.44H136.741L133.841 149.915L105.911 157.448V183.499L157.243 169.267L157.616 165.038L163.497 99.1247L164.113 92.4014H157.365H105.911Z" fill="#DBE1E9"/>
<path d="M105.911 41.7244V57.2772V66.7061V66.7628H166.308H166.389L166.891 61.1411L168.033 48.4477L168.633 41.7244H105.911Z" fill="#DBE1E9"/>
</g>
<defs>
<filter id="filter0_d_80_327" x="0" y="0" width="212" height="241.812" filterUnits="userSpaceOnUse" color-interpolation-filters="sRGB">
<feFlood flood-opacity="0" result="BackgroundImageFix"/>
<feColorMatrix in="SourceAlpha" type="matrix" values="0 0 0 0 0 0 0 0 0 0 0 0 0 0 0 0 0 0 127 0" result="hardAlpha"/>
<feOffset dy="9"/>
<feGaussianBlur stdDeviation="3"/>
<feComposite in2="hardAlpha" operator="out"/>
<feColorMatrix type="matrix" values="0 0 0 0 0 0 0 0 0 0 0 0 0 0 0 0 0 0 0.25 0"/>
<feBlend mode="normal" in2="BackgroundImageFix" result="effect1_dropShadow_80_327"/>
<feBlend mode="normal" in="SourceGraphic" in2="effect1_dropShadow_80_327" result="shape"/>
</filter>
</defs>
</svg>
