<svg width="165" height="170" viewBox="0 0 165 170" fill="none" xmlns="http://www.w3.org/2000/svg">
<path d="M81.3671 1.04942C39.7886 1.04942 42.418 19.6887 42.418 19.6887V39.0565H81.9586V45.128H26.6708C26.6708 45.128 0.0546875 41.728 0.0546875 85.4726C0.0546875 129.217 23.5554 127.438 23.5554 127.438H37.124V107.032C37.124 107.032 36.3627 82.6676 59.9629 82.6676H99.5621C99.5621 82.6676 121.651 83.0319 121.651 60.4948V23.5137C121.651 23.5137 125.001 0.976562 81.5838 0.976562L81.3671 1.04942ZM59.512 14.0241C60.9177 13.9873 62.3024 14.3835 63.4909 15.1627C64.6794 15.9418 65.6183 17.0688 66.1889 18.4012C66.7596 19.7337 66.9363 21.2116 66.6968 22.6481C66.4572 24.0847 65.8121 25.4153 64.8431 26.4717C63.8741 27.5281 62.6247 28.2629 61.2529 28.5831C59.8811 28.9034 58.4485 28.7946 57.1363 28.2707C55.8241 27.7467 54.6912 26.8311 53.8809 25.6396C53.0707 24.4481 52.6194 23.0343 52.5842 21.5769V21.4555C52.5842 19.5007 53.3332 17.6259 54.6665 16.2436C55.9998 14.8613 57.808 14.0848 59.6936 14.0848L59.512 14.0241Z" fill="url(#paint0_linear_0_1)"/>
<path d="M82.5385 169.896C124.117 169.896 121.488 151.196 121.488 151.196V131.888H81.9529V125.817H137.41C137.41 125.817 164.027 128.901 164.027 85.4117C164.027 41.9221 140.526 43.446 140.526 43.446H126.782V63.5849C126.782 63.5849 127.543 87.9496 103.943 87.9496H64.3259C64.3259 87.9496 42.219 87.6035 42.219 110.141V147.371C42.219 147.371 38.8693 169.908 82.2867 169.908H82.521L82.5385 169.896ZM104.394 156.86C102.988 156.897 101.603 156.501 100.415 155.722C99.2263 154.942 98.2873 153.815 97.7167 152.483C97.1461 151.151 96.9693 149.673 97.2089 148.236C97.4484 146.8 98.0935 145.469 99.0625 144.413C100.032 143.356 101.281 142.621 102.653 142.301C104.025 141.981 105.457 142.09 106.769 142.614C108.082 143.138 109.214 144.053 110.025 145.245C110.835 146.436 111.286 147.85 111.321 149.307V149.49C111.321 151.444 110.572 153.319 109.239 154.701C107.906 156.084 106.098 156.86 104.212 156.86H104.394Z" fill="url(#paint1_linear_0_1)"/>
<defs>
<linearGradient id="paint0_linear_0_1" x1="16.2595" y1="17.5813" x2="96.8694" y2="95.1566" gradientUnits="userSpaceOnUse">
<stop stop-color="#387EB8"/>
<stop offset="1" stop-color="#366994"/>
</linearGradient>
<linearGradient id="paint1_linear_0_1" x1="62.2909" y1="70.0119" x2="153.95" y2="147.194" gradientUnits="userSpaceOnUse">
<stop stop-color="#FFE052"/>
<stop offset="1" stop-color="#FFC331"/>
</linearGradient>
</defs>
</svg>