<svg width="20" height="21" viewBox="0 0 20 21" fill="none" xmlns="http://www.w3.org/2000/svg">
<g clip-path="url(#clip0_80_213)">
<path d="M16.4276 17.2033L14.0943 14.8033C14.9831 13.7367 15.5387 12.5367 15.7609 11.2033C15.9831 9.87 15.872 8.55889 15.4276 7.27C14.9831 5.98111 14.2498 4.87 13.2276 3.93667C12.2054 3.00333 11.0276 2.39222 9.69425 2.10333C8.36092 1.81445 7.0387 1.84778 5.72759 2.20333C4.41648 2.55889 3.27203 3.22556 2.29425 4.20333C1.31648 5.18111 0.649808 6.32556 0.294253 7.63667C-0.0613027 8.94778 -0.094636 10.27 0.194253 11.6033C0.483142 12.9367 1.09425 14.1144 2.02759 15.1367C2.96092 16.1589 4.07203 16.8922 5.36092 17.3367C6.64981 17.7811 7.96092 17.8922 9.29425 17.67C10.6276 17.4478 11.8276 16.8922 12.8943 16.0033L15.2943 18.3367C15.4276 18.5144 15.6165 18.6033 15.8609 18.6033C16.1054 18.6033 16.3054 18.5256 16.4609 18.37C16.6165 18.2144 16.6943 18.0144 16.6943 17.77C16.6943 17.5256 16.6054 17.3367 16.4276 17.2033ZM1.69425 9.87C1.69425 8.71445 1.97203 7.65889 2.52759 6.70333C3.08314 5.74778 3.8387 4.99222 4.79425 4.43667C5.74981 3.88111 6.79425 3.60333 7.92759 3.60333C9.06092 3.60333 10.1054 3.88111 11.0609 4.43667C12.0165 4.99222 12.7831 5.74778 13.3609 6.70333C13.9387 7.65889 14.2276 8.70333 14.2276 9.83667C14.2276 10.97 13.9387 12.0144 13.3609 12.97C12.7831 13.9256 12.0165 14.6811 11.0609 15.2367C10.1054 15.7922 9.06092 16.07 7.92759 16.07C6.79425 16.07 5.74981 15.7922 4.79425 15.2367C3.8387 14.6811 3.08314 13.9256 2.52759 12.97C1.97203 12.0144 1.69425 10.9811 1.69425 9.87Z" fill="white"/>
</g>
<defs>
<clipPath id="clip0_80_213">
<rect width="20" height="20" fill="white" transform="matrix(1 0 0 -1 0 20.27)"/>
</clipPath>
</defs>
</svg>
