<svg width="22" height="23" viewBox="0 0 22 23" fill="none" xmlns="http://www.w3.org/2000/svg">
<path d="M18.5894 4.21539H1.8252V6.05952H3.85454L6.74856 14.3581C6.9306 14.8962 7.26743 15.3623 7.71289 15.6924C8.15834 16.0226 8.69061 16.2007 9.23672 16.2023H16.8247V14.3581H9.23672C9.05539 14.358 8.87849 14.2996 8.73008 14.1907C8.58168 14.0818 8.46899 13.9278 8.40733 13.7496L8.00146 12.514H16.1894C16.5724 12.5134 16.9448 12.3827 17.2504 12.1415C17.556 11.9003 17.7782 11.5618 17.8835 11.177L19.4717 5.38642C19.5075 5.26533 19.5191 5.13782 19.5057 5.01185C19.4923 4.88587 19.4542 4.76414 19.3938 4.65425C19.3333 4.54436 19.2519 4.44867 19.1544 4.37316C19.057 4.29765 18.9458 4.24394 18.8276 4.21539C18.7487 4.20197 18.6682 4.20197 18.5894 4.21539ZM16.163 10.6699H7.33972L5.73389 6.05952H17.4159L16.163 10.6699Z" fill="#5E6775"/>
<path d="M9.32495 19.8905C10.0559 19.8905 10.6484 19.2712 10.6484 18.5074C10.6484 17.7435 10.0559 17.1243 9.32495 17.1243C8.59401 17.1243 8.00146 17.7435 8.00146 18.5074C8.00146 19.2712 8.59401 19.8905 9.32495 19.8905Z" fill="#5E6775"/>
<path d="M14.6189 19.8905C15.3498 19.8905 15.9424 19.2712 15.9424 18.5074C15.9424 17.7435 15.3498 17.1243 14.6189 17.1243C13.888 17.1243 13.2954 17.7435 13.2954 18.5074C13.2954 19.2712 13.888 19.8905 14.6189 19.8905Z" fill="#5E6775"/>
</svg>
