<svg width="72" height="60" viewBox="0 0 72 60" fill="none" xmlns="http://www.w3.org/2000/svg">
<path d="M36 0C16.1129 0 0 13.4274 0 30C0 46.5726 16.1129 60 36 60C55.8871 60 72 46.5726 72 30C72 13.4274 55.8871 0 36 0ZM36 11.6129C43.0548 11.6129 48.7742 16.379 48.7742 22.2581C48.7742 28.1371 43.0548 32.9032 36 32.9032C28.9452 32.9032 23.2258 28.1371 23.2258 22.2581C23.2258 16.379 28.9452 11.6129 36 11.6129ZM36 53.2258C27.479 53.2258 19.8435 50.0081 14.7339 44.9758C17.4629 40.6935 22.8048 37.7419 29.0323 37.7419C29.3806 37.7419 29.729 37.7903 30.0629 37.875C31.95 38.3831 33.9242 38.7097 36 38.7097C38.0758 38.7097 40.0645 38.3831 41.9371 37.875C42.271 37.7903 42.6194 37.7419 42.9677 37.7419C49.1952 37.7419 54.5371 40.6935 57.2661 44.9758C52.1564 50.0081 44.521 53.2258 36 53.2258Z" fill="grey"/>
</svg>
