<svg width="177" height="185" viewBox="0 0 177 185" fill="none" xmlns="http://www.w3.org/2000/svg">
<g filter="url(#filter0_d_80_231)">
<path d="M87.3671 0.438921C45.7886 0.438921 48.418 19.1032 48.418 19.1032V38.497H87.9586V44.5765H32.6708C32.6708 44.5765 6.05469 41.172 6.05469 84.9752C6.05469 128.778 29.5554 126.997 29.5554 126.997H43.124V106.564C43.124 106.564 42.3627 82.1664 65.9629 82.1664H105.562C105.562 82.1664 127.651 82.5312 127.651 59.9639V22.9333C127.651 22.9333 131.001 0.365967 87.5838 0.365967L87.3671 0.438921ZM65.512 13.4309C66.9177 13.3941 68.3024 13.7909 69.4909 14.5711C70.6794 15.3512 71.6183 16.4798 72.1889 17.814C72.7596 19.1482 72.9363 20.6281 72.6968 22.0665C72.4572 23.505 71.8121 24.8374 70.8431 25.8953C69.8741 26.9531 68.6247 27.6889 67.2529 28.0095C65.8811 28.3302 64.4485 28.2213 63.1363 27.6966C61.8241 27.172 60.6912 26.2552 59.8809 25.0621C59.0707 23.869 58.6194 22.4533 58.5842 20.9939V20.8723C58.5842 18.9149 59.3332 17.0376 60.6665 15.6535C61.9998 14.2693 63.808 13.4917 65.6936 13.4917L65.512 13.4309Z" fill="url(#paint0_linear_80_231)"/>
<path d="M88.5385 169.511C130.117 169.511 127.488 150.786 127.488 150.786V131.453H87.9529V125.374H143.41C143.41 125.374 170.027 128.462 170.027 84.9142C170.027 41.3663 146.526 42.8923 146.526 42.8923H132.782V63.0582C132.782 63.0582 133.543 87.4555 109.943 87.4555H70.3259C70.3259 87.4555 48.219 87.1089 48.219 109.676V146.956C48.219 146.956 44.8693 169.523 88.2867 169.523H88.521L88.5385 169.511ZM110.394 156.458C108.988 156.495 107.603 156.098 106.415 155.318C105.226 154.538 104.287 153.41 103.717 152.075C103.146 150.741 102.969 149.261 103.209 147.823C103.448 146.384 104.094 145.052 105.063 143.994C106.032 142.936 107.281 142.201 108.653 141.88C110.025 141.559 111.457 141.668 112.769 142.193C114.082 142.717 115.214 143.634 116.025 144.827C116.835 146.02 117.286 147.436 117.321 148.895V149.078C117.321 151.035 116.572 152.913 115.239 154.297C113.906 155.681 112.098 156.458 110.212 156.458H110.394Z" fill="url(#paint1_linear_80_231)"/>
</g>
<defs>
<filter id="filter0_d_80_231" x="0.0546875" y="0.365967" width="175.972" height="184.157" filterUnits="userSpaceOnUse" color-interpolation-filters="sRGB">
<feFlood flood-opacity="0" result="BackgroundImageFix"/>
<feColorMatrix in="SourceAlpha" type="matrix" values="0 0 0 0 0 0 0 0 0 0 0 0 0 0 0 0 0 0 127 0" result="hardAlpha"/>
<feOffset dy="9"/>
<feGaussianBlur stdDeviation="3"/>
<feComposite in2="hardAlpha" operator="out"/>
<feColorMatrix type="matrix" values="0 0 0 0 0 0 0 0 0 0 0 0 0 0 0 0 0 0 0.25 0"/>
<feBlend mode="normal" in2="BackgroundImageFix" result="effect1_dropShadow_80_231"/>
<feBlend mode="normal" in="SourceGraphic" in2="effect1_dropShadow_80_231" result="shape"/>
</filter>
<linearGradient id="paint0_linear_80_231" x1="22.2595" y1="16.993" x2="102.973" y2="94.5642" gradientUnits="userSpaceOnUse">
<stop stop-color="#387EB8"/>
<stop offset="1" stop-color="#366994"/>
</linearGradient>
<linearGradient id="paint1_linear_80_231" x1="68.2909" y1="69.4938" x2="160.052" y2="146.659" gradientUnits="userSpaceOnUse">
<stop stop-color="#FFE052"/>
<stop offset="1" stop-color="#FFC331"/>
</linearGradient>
</defs>
</svg>
